<svg width="188" height="188" viewBox="0 0 188 188" fill="none" xmlns="http://www.w3.org/2000/svg">
<path fill-rule="evenodd" clip-rule="evenodd" d="M94 180.167C141.589 180.167 180.167 141.589 180.167 94C180.167 46.4115 141.589 7.83333 94 7.83333C46.4115 7.83333 7.83333 46.4115 7.83333 94C7.83333 141.589 46.4115 180.167 94 180.167ZM94 188C145.915 188 188 145.915 188 94C188 42.0852 145.915 0 94 0C42.0852 0 0 42.0852 0 94C0 145.915 42.0852 188 94 188Z" fill="url(#paint0_linear_700_5856)"/>
<path d="M159.186 67.9411C158.925 67.2406 158.423 66.6527 157.772 66.2858C157.121 65.9189 156.363 65.7897 155.625 65.9189C154.887 66.0523 154.219 66.4401 153.743 67.0113C153.262 67.5867 153.001 68.3122 153.001 69.0626C153.001 69.4421 153.071 69.8131 153.204 70.1759C155.903 77.3098 157.266 84.7939 157.258 92.4156C157.258 107.847 151.616 122.698 141.372 134.231C131.311 145.559 117.539 152.91 102.549 154.965V126.1C104.116 125.788 105.67 125.371 107.183 124.862V149.745L107.693 149.62C120.366 146.56 131.846 139.255 140.021 129.056C148.449 118.545 152.901 105.874 152.901 92.4114C152.914 81.9003 150.086 71.5518 144.722 62.4916C139.357 53.4315 131.634 45.9557 122.381 40.869C122 40.6606 121.589 40.5355 121.158 40.4938C120.727 40.4521 120.296 40.4938 119.886 40.6272C119.471 40.7565 119.094 40.9691 118.766 41.2484C118.439 41.532 118.173 41.8739 117.983 42.2616C117.771 42.6952 117.659 43.1789 117.659 43.6625C117.659 44.2296 117.813 44.7883 118.099 45.2761C118.389 45.7639 118.799 46.1684 119.297 46.4435C127.555 50.9799 134.453 57.6468 139.246 65.7271C144.038 73.8075 146.567 83.0344 146.567 92.4114C146.567 103.156 143.317 113.492 137.169 122.298C131.282 130.728 123.169 137.203 113.671 141.056V119.855C115.205 119.325 116.557 118.391 117.597 117.144C118.704 115.819 119.392 114.213 119.591 112.5C119.79 110.786 119.483 109.068 118.708 107.526C117.974 106.066 116.859 104.845 115.471 103.982C116.739 92.3614 120.462 90.064 123.181 88.3837C124.777 87.3998 126.154 86.5492 126.154 84.0851V80.5286C126.154 76.847 122.472 68.258 114.252 57.3674C102.872 42.3116 96.3967 40.7356 94.697 40.6147C94.0378 40.548 93.4699 40.5813 92.8356 40.6147C91.1235 40.7398 84.648 42.3116 73.2559 57.3841C65.0228 68.2788 61.3373 76.8678 61.3373 80.5452V84.0976C61.3373 86.5659 62.7137 87.4123 64.3097 88.3963C67.0334 90.0765 70.752 92.3739 72.0205 103.99C70.7727 104.761 69.7322 105.833 69.0025 107.1C68.2273 108.451 67.8252 109.986 67.8418 111.537C67.8418 115.214 70.2877 118.6 73.8197 119.871V141.077C64.3263 137.224 56.2092 130.749 50.3266 122.314C44.1787 113.509 40.9286 103.173 40.9244 92.4281C40.9244 73.3405 51.3838 55.7247 68.219 46.4561C68.8326 46.1142 69.3259 45.5721 69.6037 44.93C69.8814 44.2838 69.9353 43.5541 69.7612 42.8787C69.5829 42.1991 69.1808 41.5903 68.6253 41.1609C68.0698 40.7314 67.3775 40.4938 66.6727 40.4938C66.1421 40.5063 65.6115 40.6272 65.1513 40.8857C55.8942 45.9682 48.1626 53.444 42.7941 62.5042C37.4214 71.5643 34.5858 81.9128 34.5941 92.4281C34.5941 105.891 39.0465 118.562 47.4703 129.073C55.6454 139.272 67.1246 146.576 79.7977 149.637L80.3076 149.762V124.883C81.8207 125.392 83.3753 125.804 84.9424 126.121V154.986C69.9477 152.926 56.1802 145.572 46.1189 134.247C35.8751 122.715 30.2329 107.867 30.2288 92.4364C30.2246 84.8106 31.5927 77.3306 34.2998 70.1967C34.4448 69.8048 34.5153 69.392 34.4987 68.9751C34.4822 68.5581 34.3868 68.1495 34.2127 67.7701C34.0386 67.3907 33.794 67.053 33.4831 66.7653C33.1763 66.4818 32.8198 66.2608 32.4259 66.1149C32.0321 65.9689 31.6217 65.9064 31.203 65.9189C30.7843 65.9356 30.378 66.0315 29.9966 66.2024C29.6152 66.3775 29.2753 66.6194 28.9892 66.9237C28.7032 67.2323 28.4835 67.5867 28.3342 67.9744C24.4788 78.2187 23.0984 89.3844 24.3503 100.262C25.6023 111.136 29.4784 121.71 35.5683 130.828C41.654 139.947 49.9411 147.61 59.5299 152.981C69.1186 158.351 80.0008 161.428 90.9991 161.878L91.4302 161.895V126.918C92.4044 126.963 93.6813 126.984 93.7559 126.984C93.8181 126.984 95.0908 126.959 96.065 126.918V161.895L96.4961 161.878C107.49 161.42 118.372 158.334 127.957 152.96C137.542 147.585 145.829 139.922 151.914 130.803C158 121.685 161.885 111.115 163.141 100.242C164.401 89.3677 163.033 78.1978 159.186 67.9411ZM106.222 108.618C106.902 107.613 107.917 106.867 109.086 106.517C110.255 106.166 111.52 106.233 112.643 106.7C113.767 107.167 114.704 108.009 115.276 109.081C115.848 110.148 116.03 111.391 115.79 112.579C115.549 113.767 114.898 114.843 113.957 115.61C113.016 116.377 111.827 116.798 110.608 116.798H110.604C109.903 116.798 109.223 116.661 108.576 116.394C107.93 116.127 107.353 115.739 106.86 115.247C106.002 114.388 105.467 113.25 105.351 112.049C105.235 110.844 105.546 109.627 106.226 108.622L106.222 108.618ZM81.2859 114.43C80.6061 115.435 79.5904 116.185 78.4255 116.536C77.2564 116.886 75.9962 116.823 74.8686 116.356C73.741 115.889 72.8082 115.047 72.232 113.98C71.6599 112.912 71.4733 111.67 71.7138 110.486C71.9501 109.298 72.6009 108.222 73.542 107.455C74.483 106.688 75.677 106.262 76.8958 106.262C76.8958 106.262 76.8958 106.262 76.8999 106.262C77.6005 106.262 78.2804 106.396 78.923 106.662C79.5697 106.929 80.1459 107.313 80.6392 107.809C81.4974 108.668 82.0363 109.802 82.1524 111.007C82.2685 112.212 81.9617 113.429 81.2859 114.434V114.43Z" fill="url(#paint1_linear_700_5856)"/>
<defs>
<linearGradient id="paint0_linear_700_5856" x1="23.2025" y1="1.07005e-05" x2="205.988" y2="159.081" gradientUnits="userSpaceOnUse">
<stop stop-color="#A7FBFF"/>
<stop offset="0.541667" stop-color="#53C4BF"/>
<stop offset="1" stop-color="#0C9689"/>
</linearGradient>
<linearGradient id="paint1_linear_700_5856" x1="41.1424" y1="40.4783" x2="160.332" y2="159.826" gradientUnits="userSpaceOnUse">
<stop stop-color="#A7FBFF"/>
<stop offset="0.541667" stop-color="#53C4BF"/>
<stop offset="1" stop-color="#0C9689"/>
</linearGradient>
</defs>
</svg>
